<svg id="Lager_1" data-name="Lager 1" xmlns="http://www.w3.org/2000/svg" xmlns:xlink="http://www.w3.org/1999/xlink" viewBox="0 0 196.77 200"><defs><style>.cls-1{fill:none;}.cls-2{clip-path:url(#clip-path);}.cls-3{fill:#fff;}</style><clipPath id="clip-path" transform="translate(-1.59 -0.1)"><rect class="cls-1" x="1.59" y="0.1" width="196.77" height="200"/></clipPath></defs><title>mimer-logo</title><g class="cls-2"><path class="cls-3" d="M8.42,199.62l-6.6-.18V179a6.66,6.66,0,0,1,1.68-4.53,6.51,6.51,0,0,1,5-2.21,6.63,6.63,0,0,1,4.42,1.66,10.74,10.74,0,0,1,2.88,4.2l6.15,15.15,6.75-16a9.07,9.07,0,0,1,2.63-3.71,6.36,6.36,0,0,1,4.08-1.34,6.09,6.09,0,0,1,4.9,2.23,8,8,0,0,1,1.88,5.33v19.61h-6.6v-20L29,193.72A15.15,15.15,0,0,1,26,198.64a5.77,5.77,0,0,1-3.19,1.42,4.65,4.65,0,0,1-.73,0,5.93,5.93,0,0,1-4.32-1.95,15.19,15.19,0,0,1-2.87-4.47l-6.42-14Z" transform="translate(-1.59 -0.1)"/><rect class="cls-3" x="51.55" y="172.17" width="7.63" height="27.39"/><path class="cls-3" d="M78.5,199.62l-6.6-.18V179a6.66,6.66,0,0,1,1.68-4.53,6.31,6.31,0,0,1,4.26-2.18,6.21,6.21,0,0,1,.69,0A6.65,6.65,0,0,1,83,173.93a10.62,10.62,0,0,1,2.87,4.2L92,193.28l6.75-16a8.89,8.89,0,0,1,2.63-3.71,6.36,6.36,0,0,1,4.08-1.34,6.11,6.11,0,0,1,4.9,2.23,8,8,0,0,1,1.88,5.33v19.61h-6.6v-20l-6.52,14.26A15.32,15.32,0,0,1,96,198.64a5.8,5.8,0,0,1-3.19,1.42,4.79,4.79,0,0,1-.74,0,5.91,5.91,0,0,1-4.31-1.95,15.41,15.41,0,0,1-2.88-4.47l-6.41-14Z" transform="translate(-1.59 -0.1)"/><path class="cls-3" d="M132.83,172.16h21.55v7H130.1v3.13h24.28v7l-24.09.08v2.87h24.09v7.23H132.76a10.89,10.89,0,0,1-4.15-.72,8.26,8.26,0,0,1-3.18-2.45,10.12,10.12,0,0,1-1.72-2.64,7.57,7.57,0,0,1-.54-3V180.9a9,9,0,0,1,.65-3.55,8.63,8.63,0,0,1,2.12-2.87,7.94,7.94,0,0,1,3-1.84,13.29,13.29,0,0,1,3.87-.48" transform="translate(-1.59 -0.1)"/><path class="cls-3" d="M165.14,172.27h24.39a7.41,7.41,0,0,1,4.24,1.22,10.07,10.07,0,0,1,3,3.41,7.66,7.66,0,0,1,.83,1.95,7.87,7.87,0,0,1,.24,1.94,8.18,8.18,0,0,1-.78,3.45,10.85,10.85,0,0,1-.77,1.34,10,10,0,0,1,.88,1.32,7,7,0,0,1,.93,3.28v9.26h-7V189.26H172.26v10.18H165.1Zm7.3,10.17H191v-3.35H172.44Z" transform="translate(-1.59 -0.1)"/><polygon class="cls-3" points="98.05 0 117.85 49.63 78.25 49.63 98.05 0"/><polygon class="cls-3" points="98.05 157.63 78.25 108 117.85 108 98.05 157.63"/><polygon class="cls-3" points="0 128.69 49.9 78.79 78.32 107.96 0 128.69"/><polygon class="cls-3" points="0 28.9 49.9 78.79 78.32 49.62 0 28.9"/><polygon class="cls-3" points="196.77 128.69 146.87 78.79 118.45 107.96 196.77 128.69"/><polygon class="cls-3" points="196.77 28.9 146.87 78.79 118.45 49.62 196.77 28.9"/><path class="cls-3" d="M99.64,59.3a19.59,19.59,0,1,0,19.59,19.59A19.59,19.59,0,0,0,99.64,59.3M93.06,78.62a7.24,7.24,0,1,1,7.24-7.24,7.24,7.24,0,0,1-7.24,7.24" transform="translate(-1.59 -0.1)"/></g></svg>